<mxfile host="app.diagrams.net" agent="Mozilla/5.0 (Windows NT 10.0; Win64; x64) AppleWebKit/537.36 (KHTML, like Gecko) Chrome/132.0.0.0 Safari/537.36" version="28.0.7">
  <diagram id="QZXZdfDButVdJtxfi-7L" name="Page-2">
    <mxGraphModel dx="1613" dy="451" grid="1" gridSize="10" guides="1" tooltips="1" connect="1" arrows="1" fold="1" page="1" pageScale="1" pageWidth="827" pageHeight="1169" math="0" shadow="0">
      <root>
        <mxCell id="0" />
        <mxCell id="1" parent="0" />
        <mxCell id="1TLZHsi8gzNMtm6zdKf4-1" value="&lt;font style=&quot;font-size: 20px;&quot;&gt;STUDENT INFORMATION SYSTEM&lt;/font&gt;" style="rounded=0;whiteSpace=wrap;html=1;fillColor=#6d8764;fontColor=#ffffff;strokeColor=#3A5431;" parent="1" vertex="1">
          <mxGeometry x="70" y="30" width="680" height="50" as="geometry" />
        </mxCell>
        <mxCell id="1TLZHsi8gzNMtm6zdKf4-2" value="&lt;font style=&quot;font-size: 15px;&quot;&gt;ADMIN&lt;/font&gt;" style="rounded=0;whiteSpace=wrap;html=1;fillColor=#647687;fontColor=#ffffff;strokeColor=#314354;" parent="1" vertex="1">
          <mxGeometry x="-35" y="120" width="140" height="50" as="geometry" />
        </mxCell>
        <mxCell id="1TLZHsi8gzNMtm6zdKf4-3" value="Login to System&amp;nbsp;" style="ellipse;whiteSpace=wrap;html=1;aspect=fixed;fillColor=#76608a;fontColor=#ffffff;strokeColor=#432D57;" parent="1" vertex="1">
          <mxGeometry x="220" y="105" width="80" height="80" as="geometry" />
        </mxCell>
        <mxCell id="1TLZHsi8gzNMtm6zdKf4-4" value="Check roles of access" style="ellipse;whiteSpace=wrap;html=1;aspect=fixed;fillColor=#76608a;fontColor=#ffffff;strokeColor=#432D57;" parent="1" vertex="1">
          <mxGeometry x="334" y="105" width="80" height="80" as="geometry" />
        </mxCell>
        <mxCell id="1TLZHsi8gzNMtm6zdKf4-5" value="forgot&amp;nbsp;&lt;div&gt;&amp;nbsp;password&lt;/div&gt;" style="ellipse;whiteSpace=wrap;html=1;aspect=fixed;fillColor=#647687;fontColor=#ffffff;strokeColor=#314354;" parent="1" vertex="1">
          <mxGeometry x="-30" y="280" width="120" height="120" as="geometry" />
        </mxCell>
        <mxCell id="1TLZHsi8gzNMtm6zdKf4-6" value="&lt;font style=&quot;font-size: 16px;&quot;&gt;Send Email to user&lt;/font&gt;" style="ellipse;whiteSpace=wrap;html=1;aspect=fixed;fillColor=#647687;fontColor=#ffffff;strokeColor=#314354;" parent="1" vertex="1">
          <mxGeometry x="-50" y="480" width="170" height="170" as="geometry" />
        </mxCell>
        <mxCell id="1TLZHsi8gzNMtm6zdKf4-7" value="Check Credentials" style="ellipse;whiteSpace=wrap;html=1;aspect=fixed;fillColor=#76608a;fontColor=#ffffff;strokeColor=#432D57;" parent="1" vertex="1">
          <mxGeometry x="220" y="240" width="80" height="80" as="geometry" />
        </mxCell>
        <mxCell id="1TLZHsi8gzNMtm6zdKf4-8" value="Manage Modules" style="ellipse;whiteSpace=wrap;html=1;aspect=fixed;fillColor=#76608a;fontColor=#ffffff;strokeColor=#432D57;" parent="1" vertex="1">
          <mxGeometry x="334" y="240" width="80" height="80" as="geometry" />
        </mxCell>
        <mxCell id="1TLZHsi8gzNMtm6zdKf4-9" value="&lt;font style=&quot;font-size: 14px;&quot;&gt;Manage system admins&lt;/font&gt;" style="rounded=0;whiteSpace=wrap;html=1;fillColor=#e51400;fontColor=#ffffff;strokeColor=#B20000;" parent="1" vertex="1">
          <mxGeometry x="-60" y="840" width="190" height="45.5" as="geometry" />
        </mxCell>
        <mxCell id="1TLZHsi8gzNMtm6zdKf4-10" value="&lt;font style=&quot;font-size: 14px;&quot;&gt;Manage roles of user&lt;/font&gt;" style="rounded=0;whiteSpace=wrap;html=1;fillColor=#e51400;fontColor=#ffffff;strokeColor=#B20000;" parent="1" vertex="1">
          <mxGeometry x="187" y="840" width="146" height="47.25" as="geometry" />
        </mxCell>
        <mxCell id="1TLZHsi8gzNMtm6zdKf4-11" value="Manage uset permission" style="rounded=0;whiteSpace=wrap;html=1;fillColor=#fa6800;fontColor=#000000;strokeColor=#C73500;" parent="1" vertex="1">
          <mxGeometry x="380" y="841.75" width="150" height="45.5" as="geometry" />
        </mxCell>
        <mxCell id="1TLZHsi8gzNMtm6zdKf4-12" value="&lt;font style=&quot;font-size: 15px;&quot;&gt;Manage timetable Details&lt;/font&gt;" style="rounded=0;whiteSpace=wrap;html=1;fillColor=#e51400;fontColor=#ffffff;strokeColor=#B20000;" parent="1" vertex="1">
          <mxGeometry x="550" y="105" width="230" height="60" as="geometry" />
        </mxCell>
        <mxCell id="1TLZHsi8gzNMtm6zdKf4-15" value="&lt;font style=&quot;font-size: 15px;&quot;&gt;Manage class details&lt;/font&gt;" style="rounded=0;whiteSpace=wrap;html=1;fillColor=#e51400;fontColor=#ffffff;strokeColor=#B20000;" parent="1" vertex="1">
          <mxGeometry x="550" y="310" width="240" height="60" as="geometry" />
        </mxCell>
        <mxCell id="1TLZHsi8gzNMtm6zdKf4-16" value="&lt;font style=&quot;font-size: 15px;&quot;&gt;Manage student details&lt;/font&gt;" style="rounded=0;whiteSpace=wrap;html=1;fillColor=#e51400;fontColor=#ffffff;strokeColor=#B20000;" parent="1" vertex="1">
          <mxGeometry x="550" y="410" width="230" height="60" as="geometry" />
        </mxCell>
        <mxCell id="1TLZHsi8gzNMtm6zdKf4-17" value="&lt;font style=&quot;font-size: 15px;&quot;&gt;Manage fees details&lt;/font&gt;" style="rounded=0;whiteSpace=wrap;html=1;fillColor=#e51400;fontColor=#ffffff;strokeColor=#B20000;" parent="1" vertex="1">
          <mxGeometry x="560" y="511.75" width="220" height="48.25" as="geometry" />
        </mxCell>
        <mxCell id="1TLZHsi8gzNMtm6zdKf4-18" value="&lt;font style=&quot;font-size: 16px;&quot;&gt;Manage teacher profiles&lt;/font&gt;" style="rounded=0;whiteSpace=wrap;html=1;fillColor=#e51400;fontColor=#ffffff;strokeColor=#B20000;" parent="1" vertex="1">
          <mxGeometry x="560" y="600" width="230" height="40" as="geometry" />
        </mxCell>
        <mxCell id="1TLZHsi8gzNMtm6zdKf4-19" value="&lt;font style=&quot;font-size: 17px;&quot;&gt;Manage report&lt;/font&gt;" style="rounded=0;whiteSpace=wrap;html=1;fillColor=#e51400;fontColor=#ffffff;strokeColor=#B20000;" parent="1" vertex="1">
          <mxGeometry x="560" y="700" width="230" height="60" as="geometry" />
        </mxCell>
        <mxCell id="1TLZHsi8gzNMtm6zdKf4-21" value="" style="endArrow=classic;html=1;rounded=0;" parent="1" edge="1">
          <mxGeometry width="50" height="50" relative="1" as="geometry">
            <mxPoint x="420" y="270" as="sourcePoint" />
            <mxPoint x="550" y="130" as="targetPoint" />
          </mxGeometry>
        </mxCell>
        <mxCell id="1TLZHsi8gzNMtm6zdKf4-22" value="" style="endArrow=classic;html=1;rounded=0;exitX=0.95;exitY=0.75;exitDx=0;exitDy=0;exitPerimeter=0;" parent="1" source="1TLZHsi8gzNMtm6zdKf4-13" edge="1">
          <mxGeometry width="50" height="50" relative="1" as="geometry">
            <mxPoint x="450" y="290" as="sourcePoint" />
            <mxPoint x="560" y="240" as="targetPoint" />
            <Array as="points" />
          </mxGeometry>
        </mxCell>
        <mxCell id="1TLZHsi8gzNMtm6zdKf4-13" value="&lt;font style=&quot;font-size: 15px;&quot;&gt;Manage Attendence Details&lt;/font&gt;" style="rounded=0;whiteSpace=wrap;html=1;fillColor=#e51400;fontColor=#ffffff;strokeColor=#B20000;" parent="1" vertex="1">
          <mxGeometry x="550" y="210" width="240" height="50" as="geometry" />
        </mxCell>
        <mxCell id="1TLZHsi8gzNMtm6zdKf4-24" value="" style="endArrow=classic;html=1;rounded=0;" parent="1" edge="1">
          <mxGeometry width="50" height="50" relative="1" as="geometry">
            <mxPoint x="420" y="290" as="sourcePoint" />
            <mxPoint x="540" y="230" as="targetPoint" />
          </mxGeometry>
        </mxCell>
        <mxCell id="1TLZHsi8gzNMtm6zdKf4-27" value="" style="endArrow=classic;html=1;rounded=0;exitX=0.825;exitY=0.875;exitDx=0;exitDy=0;exitPerimeter=0;" parent="1" source="1TLZHsi8gzNMtm6zdKf4-8" edge="1">
          <mxGeometry width="50" height="50" relative="1" as="geometry">
            <mxPoint x="410" y="260" as="sourcePoint" />
            <mxPoint x="540" y="350" as="targetPoint" />
          </mxGeometry>
        </mxCell>
        <mxCell id="1TLZHsi8gzNMtm6zdKf4-28" value="" style="endArrow=classic;html=1;rounded=0;" parent="1" edge="1">
          <mxGeometry width="50" height="50" relative="1" as="geometry">
            <mxPoint x="400" y="310" as="sourcePoint" />
            <mxPoint x="540" y="450" as="targetPoint" />
            <Array as="points" />
          </mxGeometry>
        </mxCell>
        <mxCell id="1TLZHsi8gzNMtm6zdKf4-29" value="" style="endArrow=classic;html=1;rounded=0;" parent="1" edge="1">
          <mxGeometry width="50" height="50" relative="1" as="geometry">
            <mxPoint x="390" y="320" as="sourcePoint" />
            <mxPoint x="570" y="550" as="targetPoint" />
          </mxGeometry>
        </mxCell>
        <mxCell id="1TLZHsi8gzNMtm6zdKf4-30" value="" style="endArrow=classic;html=1;rounded=0;" parent="1" edge="1">
          <mxGeometry width="50" height="50" relative="1" as="geometry">
            <mxPoint x="380" y="320" as="sourcePoint" />
            <mxPoint x="550" y="630" as="targetPoint" />
          </mxGeometry>
        </mxCell>
        <mxCell id="1TLZHsi8gzNMtm6zdKf4-31" value="" style="endArrow=classic;html=1;rounded=0;" parent="1" edge="1">
          <mxGeometry width="50" height="50" relative="1" as="geometry">
            <mxPoint x="370" y="320" as="sourcePoint" />
            <mxPoint x="510" y="700" as="targetPoint" />
          </mxGeometry>
        </mxCell>
        <mxCell id="1TLZHsi8gzNMtm6zdKf4-33" value="" style="endArrow=classic;html=1;rounded=0;" parent="1" edge="1">
          <mxGeometry width="50" height="50" relative="1" as="geometry">
            <mxPoint x="360" y="330" as="sourcePoint" />
            <mxPoint x="420" y="830" as="targetPoint" />
          </mxGeometry>
        </mxCell>
        <mxCell id="1TLZHsi8gzNMtm6zdKf4-35" value="" style="endArrow=classic;html=1;rounded=0;" parent="1" edge="1">
          <mxGeometry width="50" height="50" relative="1" as="geometry">
            <mxPoint x="350" y="330" as="sourcePoint" />
            <mxPoint x="230" y="830" as="targetPoint" />
          </mxGeometry>
        </mxCell>
        <mxCell id="1TLZHsi8gzNMtm6zdKf4-36" value="" style="endArrow=classic;html=1;rounded=0;exitX=0.075;exitY=0.875;exitDx=0;exitDy=0;exitPerimeter=0;" parent="1" source="1TLZHsi8gzNMtm6zdKf4-8" edge="1">
          <mxGeometry width="50" height="50" relative="1" as="geometry">
            <mxPoint x="320" y="340" as="sourcePoint" />
            <mxPoint x="30" y="820" as="targetPoint" />
          </mxGeometry>
        </mxCell>
        <mxCell id="1TLZHsi8gzNMtm6zdKf4-43" value="" style="endArrow=classic;html=1;rounded=0;" parent="1" edge="1">
          <mxGeometry width="50" height="50" relative="1" as="geometry">
            <mxPoint x="120" y="150" as="sourcePoint" />
            <mxPoint x="210" y="150" as="targetPoint" />
          </mxGeometry>
        </mxCell>
        <mxCell id="1TLZHsi8gzNMtm6zdKf4-44" value="" style="endArrow=classic;html=1;rounded=0;" parent="1" edge="1">
          <mxGeometry width="50" height="50" relative="1" as="geometry">
            <mxPoint x="30" y="180" as="sourcePoint" />
            <mxPoint x="30" y="270" as="targetPoint" />
          </mxGeometry>
        </mxCell>
        <mxCell id="1TLZHsi8gzNMtm6zdKf4-45" value="" style="endArrow=classic;html=1;rounded=0;" parent="1" edge="1">
          <mxGeometry width="50" height="50" relative="1" as="geometry">
            <mxPoint x="30" y="410" as="sourcePoint" />
            <mxPoint x="30" y="490" as="targetPoint" />
            <Array as="points">
              <mxPoint x="30" y="480" />
            </Array>
          </mxGeometry>
        </mxCell>
        <mxCell id="1TLZHsi8gzNMtm6zdKf4-46" value="" style="endArrow=classic;html=1;rounded=0;exitX=0.5;exitY=0.938;exitDx=0;exitDy=0;exitPerimeter=0;" parent="1" source="1TLZHsi8gzNMtm6zdKf4-3" edge="1">
          <mxGeometry width="50" height="50" relative="1" as="geometry">
            <mxPoint x="260" y="210" as="sourcePoint" />
            <mxPoint x="260" y="230" as="targetPoint" />
          </mxGeometry>
        </mxCell>
        <mxCell id="1TLZHsi8gzNMtm6zdKf4-47" value="" style="endArrow=classic;html=1;rounded=0;exitX=0.875;exitY=0;exitDx=0;exitDy=0;exitPerimeter=0;" parent="1" source="1TLZHsi8gzNMtm6zdKf4-7" edge="1">
          <mxGeometry width="50" height="50" relative="1" as="geometry">
            <mxPoint x="280" y="500" as="sourcePoint" />
            <mxPoint x="330" y="170" as="targetPoint" />
          </mxGeometry>
        </mxCell>
        <mxCell id="1TLZHsi8gzNMtm6zdKf4-49" value="" style="endArrow=classic;html=1;rounded=0;" parent="1" edge="1">
          <mxGeometry width="50" height="50" relative="1" as="geometry">
            <mxPoint x="370" y="190" as="sourcePoint" />
            <mxPoint x="370" y="240" as="targetPoint" />
          </mxGeometry>
        </mxCell>
        <mxCell id="1TLZHsi8gzNMtm6zdKf4-50" value="" style="shape=note;whiteSpace=wrap;html=1;backgroundOutline=1;fontColor=#000000;darkOpacity=0.05;fillColor=#FFF9B2;strokeColor=none;fillStyle=solid;direction=west;gradientDirection=north;gradientColor=#FFF2A1;shadow=1;size=20;pointerEvents=1;" parent="1" vertex="1">
          <mxGeometry x="1010" y="1180" width="140" height="160" as="geometry" />
        </mxCell>
      </root>
    </mxGraphModel>
  </diagram>
</mxfile>
